<?xml version="1.0" encoding="UTF-8"?>
<svg xmlns="http://www.w3.org/2000/svg" xmlns:xlink="http://www.w3.org/1999/xlink" width="375pt" height="374.999991pt" viewBox="0 0 375 374.999991" version="1.2">
<defs>
<clipPath id="clip1">
  <path d="M 57 56 L 318.410156 56 L 318.410156 301 L 57 301 Z M 57 56 "/>
</clipPath>
<clipPath id="clip2">
  <path d="M 169 40.695312 L 206 40.695312 L 206 77 L 169 77 Z M 169 40.695312 "/>
</clipPath>
<clipPath id="clip3">
  <path d="M 169 297 L 206 297 L 206 333.59375 L 169 333.59375 Z M 169 297 "/>
</clipPath>
<clipPath id="clip4">
  <path d="M 101.546875 83.371094 L 273.296875 83.371094 L 273.296875 291.871094 L 101.546875 291.871094 Z M 101.546875 83.371094 "/>
</clipPath>
</defs>
<g id="surface1">
<path style=" stroke:none;fill-rule:nonzero;fill:rgb(100%,100%,100%);fill-opacity:1;" d="M 242.824219 186.84375 C 242.824219 188.644531 242.734375 190.445312 242.558594 192.238281 C 242.382812 194.035156 242.117188 195.816406 241.761719 197.585938 C 241.410156 199.355469 240.972656 201.101562 240.445312 202.828125 C 239.921875 204.554688 239.3125 206.25 238.621094 207.914062 C 237.929688 209.582031 237.15625 211.210938 236.304688 212.800781 C 235.449219 214.390625 234.523438 215.9375 233.515625 217.4375 C 232.511719 218.933594 231.4375 220.382812 230.289062 221.777344 C 229.140625 223.171875 227.925781 224.503906 226.648438 225.78125 C 225.371094 227.054688 224.03125 228.265625 222.632812 229.410156 C 221.234375 230.554688 219.785156 231.625 218.277344 232.628906 C 216.773438 233.628906 215.226562 234.558594 213.628906 235.40625 C 212.035156 236.257812 210.402344 237.027344 208.730469 237.71875 C 207.058594 238.40625 205.359375 239.015625 203.628906 239.539062 C 201.898438 240.0625 200.144531 240.5 198.371094 240.851562 C 196.597656 241.203125 194.808594 241.46875 193.007812 241.644531 C 191.207031 241.820312 189.40625 241.910156 187.59375 241.910156 C 185.785156 241.910156 183.980469 241.820312 182.183594 241.644531 C 180.382812 241.46875 178.59375 241.203125 176.820312 240.851562 C 175.046875 240.5 173.292969 240.0625 171.5625 239.539062 C 169.832031 239.015625 168.132812 238.40625 166.460938 237.71875 C 164.789062 237.027344 163.15625 236.257812 161.5625 235.40625 C 159.964844 234.558594 158.414062 233.628906 156.910156 232.628906 C 155.40625 231.625 153.957031 230.554688 152.558594 229.410156 C 151.160156 228.265625 149.820312 227.054688 148.542969 225.78125 C 147.261719 224.503906 146.050781 223.171875 144.902344 221.777344 C 143.753906 220.382812 142.679688 218.933594 141.675781 217.4375 C 140.667969 215.9375 139.742188 214.390625 138.886719 212.800781 C 138.035156 211.210938 137.261719 209.582031 136.570312 207.914062 C 135.878906 206.25 135.269531 204.554688 134.746094 202.828125 C 134.21875 201.101562 133.78125 199.355469 133.425781 197.585938 C 133.074219 195.816406 132.808594 194.035156 132.632812 192.238281 C 132.453125 190.445312 132.367188 188.644531 132.367188 186.84375 C 132.367188 185.039062 132.453125 183.238281 132.632812 181.445312 C 132.808594 179.648438 133.074219 177.867188 133.425781 176.097656 C 133.78125 174.328125 134.21875 172.582031 134.746094 170.855469 C 135.269531 169.128906 135.878906 167.433594 136.570312 165.769531 C 137.261719 164.101562 138.035156 162.472656 138.886719 160.882812 C 139.742188 159.292969 140.667969 157.746094 141.675781 156.246094 C 142.679688 154.75 143.753906 153.300781 144.902344 151.90625 C 146.050781 150.511719 147.261719 149.179688 148.542969 147.902344 C 149.820312 146.628906 151.160156 145.417969 152.558594 144.273438 C 153.957031 143.128906 155.40625 142.058594 156.910156 141.054688 C 158.414062 140.054688 159.964844 139.125 161.5625 138.277344 C 163.15625 137.425781 164.789062 136.65625 166.460938 135.964844 C 168.132812 135.277344 169.832031 134.667969 171.5625 134.144531 C 173.292969 133.621094 175.046875 133.183594 176.820312 132.832031 C 178.59375 132.480469 180.382812 132.214844 182.183594 132.039062 C 183.980469 131.863281 185.785156 131.773438 187.59375 131.773438 C 189.40625 131.773438 191.207031 131.863281 193.007812 132.039062 C 194.808594 132.214844 196.597656 132.480469 198.371094 132.832031 C 200.144531 133.183594 201.898438 133.621094 203.628906 134.144531 C 205.359375 134.667969 207.058594 135.277344 208.730469 135.964844 C 210.402344 136.65625 212.035156 137.425781 213.628906 138.277344 C 215.226562 139.125 216.773438 140.054688 218.28125 141.054688 C 219.785156 142.058594 221.234375 143.128906 222.632812 144.273438 C 224.03125 145.417969 225.371094 146.628906 226.648438 147.902344 C 227.925781 149.179688 229.140625 150.511719 230.289062 151.90625 C 231.4375 153.300781 232.511719 154.75 233.515625 156.246094 C 234.523438 157.746094 235.449219 159.292969 236.304688 160.882812 C 237.15625 162.472656 237.929688 164.101562 238.621094 165.769531 C 239.3125 167.433594 239.921875 169.128906 240.445312 170.855469 C 240.972656 172.582031 241.410156 174.328125 241.761719 176.097656 C 242.117188 177.867188 242.382812 179.648438 242.558594 181.445312 C 242.734375 183.238281 242.824219 185.039062 242.824219 186.84375 Z M 242.824219 186.84375 "/>
<g clip-path="url(#clip1)" clip-rule="nonzero">
<path style=" stroke:none;fill-rule:nonzero;fill:rgb(100%,61.569214%,91.758728%);fill-opacity:1;" d="M 124.023438 300.507812 C 123.890625 300.507812 123.753906 300.476562 123.632812 300.40625 C 104.101562 289.449219 87.613281 273.558594 75.953125 254.460938 C 63.964844 234.824219 57.410156 212.242188 57.007812 189.15625 C 57 188.714844 57.351562 188.351562 57.796875 188.34375 C 57.800781 188.34375 57.804688 188.34375 57.808594 188.34375 C 58.246094 188.34375 58.601562 188.691406 58.609375 189.128906 C 59.011719 211.929688 65.480469 234.234375 77.324219 253.632812 C 88.839844 272.496094 105.125 288.1875 124.417969 299.011719 C 124.804688 299.230469 124.941406 299.714844 124.722656 300.101562 C 124.574219 300.363281 124.304688 300.507812 124.023438 300.507812 Z M 253.175781 299.359375 C 252.898438 299.359375 252.632812 299.21875 252.480469 298.964844 C 252.257812 298.585938 252.386719 298.09375 252.769531 297.871094 C 271.84375 286.714844 287.832031 270.757812 299.007812 251.730469 C 310.515625 232.125 316.597656 209.6875 316.597656 186.84375 C 316.597656 185.320312 316.570312 183.78125 316.519531 182.265625 C 316.503906 181.824219 316.851562 181.453125 317.292969 181.4375 C 317.738281 181.433594 318.105469 181.769531 318.121094 182.210938 C 318.175781 183.742188 318.203125 185.300781 318.203125 186.84375 C 318.203125 209.972656 312.042969 232.6875 300.386719 252.539062 C 289.078125 271.800781 272.890625 287.953125 253.578125 299.25 C 253.453125 299.324219 253.3125 299.359375 253.175781 299.359375 Z M 120.039062 77.105469 C 119.765625 77.105469 119.503906 76.96875 119.351562 76.722656 C 119.121094 76.347656 119.242188 75.855469 119.617188 75.625 C 140.039062 63.191406 163.542969 56.617188 187.59375 56.617188 C 209.210938 56.617188 230.625 61.992188 249.523438 72.160156 C 249.914062 72.367188 250.058594 72.851562 249.847656 73.242188 C 249.636719 73.628906 249.152344 73.773438 248.761719 73.566406 C 230.09375 63.523438 208.945312 58.21875 187.59375 58.21875 C 163.839844 58.214844 140.621094 64.707031 120.453125 76.988281 C 120.324219 77.066406 120.179688 77.105469 120.039062 77.105469 Z M 120.039062 77.105469 "/>
</g>
<path style=" stroke:none;fill-rule:nonzero;fill:rgb(100%,61.569214%,91.758728%);fill-opacity:1;" d="M 188.457031 321.011719 L 130.839844 220.503906 L 73.320312 253.617188 L 111.832031 187.351562 L 73.320312 120.171875 L 131.453125 153.589844 L 186.84375 58.285156 C 186.847656 58.277344 186.855469 58.269531 186.859375 58.257812 L 188.457031 55.507812 L 188.457031 58.472656 L 243.421875 153.710938 L 299.078125 121.675781 C 299.488281 121.4375 300.015625 121.578125 300.253906 121.988281 C 300.492188 122.398438 300.351562 122.925781 299.941406 123.160156 L 244.285156 155.199219 L 300.625 252.824219 L 188.457031 188.339844 Z M 132.332031 219.644531 L 186.734375 314.546875 L 186.734375 188.328125 Z M 112.820312 189.074219 L 78.042969 248.914062 L 129.984375 219.015625 Z M 189.304688 186.847656 L 295.9375 248.148438 L 242.789062 156.058594 Z M 113.820312 187.355469 L 131.476562 218.15625 L 185.859375 186.851562 L 132.082031 155.933594 Z M 77.976562 124.828125 L 112.832031 185.632812 L 130.589844 155.078125 Z M 132.945312 154.449219 L 186.734375 185.371094 L 186.734375 61.898438 Z M 188.457031 61.917969 L 188.457031 185.355469 L 241.933594 154.570312 Z M 188.457031 61.917969 "/>
<path style=" stroke:none;fill-rule:nonzero;fill:rgb(100%,61.569214%,91.758728%);fill-opacity:1;" d="M 187.59375 318.636719 C 187.449219 318.636719 187.300781 318.601562 187.167969 318.523438 C 186.753906 318.289062 186.613281 317.765625 186.847656 317.351562 L 298.761719 121.992188 C 298.996094 121.582031 299.523438 121.4375 299.9375 121.671875 C 300.347656 121.910156 300.492188 122.433594 300.257812 122.84375 L 188.34375 318.203125 C 188.183594 318.480469 187.894531 318.636719 187.59375 318.636719 Z M 187.59375 318.636719 "/>
<g clip-path="url(#clip2)" clip-rule="nonzero">
<path style=" stroke:none;fill-rule:nonzero;fill:rgb(100%,61.569214%,91.758728%);fill-opacity:1;" d="M 205.628906 58.703125 C 205.628906 59.292969 205.601562 59.878906 205.542969 60.464844 C 205.484375 61.050781 205.398438 61.632812 205.28125 62.210938 C 205.167969 62.789062 205.023438 63.359375 204.851562 63.921875 C 204.679688 64.488281 204.484375 65.042969 204.257812 65.585938 C 204.03125 66.128906 203.777344 66.660156 203.5 67.179688 C 203.222656 67.699219 202.917969 68.203125 202.589844 68.695312 C 202.261719 69.183594 201.910156 69.65625 201.535156 70.109375 C 201.160156 70.566406 200.765625 71.003906 200.347656 71.417969 C 199.929688 71.835938 199.492188 72.230469 199.035156 72.605469 C 198.578125 72.976562 198.105469 73.328125 197.613281 73.65625 C 197.125 73.980469 196.617188 74.285156 196.097656 74.5625 C 195.574219 74.839844 195.042969 75.089844 194.496094 75.316406 C 193.949219 75.542969 193.394531 75.738281 192.832031 75.910156 C 192.265625 76.082031 191.691406 76.226562 191.113281 76.339844 C 190.535156 76.453125 189.949219 76.539062 189.363281 76.597656 C 188.777344 76.65625 188.1875 76.683594 187.59375 76.683594 C 187.003906 76.683594 186.414062 76.65625 185.828125 76.597656 C 185.238281 76.539062 184.65625 76.453125 184.078125 76.339844 C 183.496094 76.226562 182.925781 76.082031 182.359375 75.910156 C 181.796875 75.738281 181.238281 75.542969 180.695312 75.316406 C 180.148438 75.089844 179.617188 74.839844 179.09375 74.5625 C 178.574219 74.285156 178.066406 73.980469 177.578125 73.65625 C 177.085938 73.328125 176.613281 72.976562 176.15625 72.605469 C 175.699219 72.230469 175.261719 71.835938 174.84375 71.417969 C 174.425781 71.003906 174.03125 70.566406 173.65625 70.109375 C 173.28125 69.65625 172.929688 69.183594 172.601562 68.695312 C 172.273438 68.203125 171.96875 67.699219 171.691406 67.179688 C 171.414062 66.660156 171.160156 66.128906 170.933594 65.585938 C 170.707031 65.042969 170.507812 64.488281 170.339844 63.921875 C 170.167969 63.359375 170.023438 62.789062 169.90625 62.210938 C 169.792969 61.632812 169.707031 61.050781 169.648438 60.464844 C 169.589844 59.878906 169.5625 59.292969 169.5625 58.703125 C 169.5625 58.117188 169.589844 57.527344 169.648438 56.941406 C 169.707031 56.355469 169.792969 55.773438 169.90625 55.195312 C 170.023438 54.617188 170.167969 54.046875 170.339844 53.484375 C 170.507812 52.921875 170.707031 52.367188 170.933594 51.824219 C 171.160156 51.277344 171.414062 50.746094 171.691406 50.226562 C 171.96875 49.707031 172.273438 49.203125 172.601562 48.714844 C 172.929688 48.226562 173.28125 47.753906 173.65625 47.296875 C 174.03125 46.84375 174.425781 46.40625 174.84375 45.988281 C 175.261719 45.574219 175.699219 45.179688 176.15625 44.804688 C 176.613281 44.429688 177.085938 44.082031 177.578125 43.753906 C 178.066406 43.425781 178.574219 43.125 179.09375 42.847656 C 179.617188 42.570312 180.148438 42.316406 180.695312 42.089844 C 181.238281 41.867188 181.796875 41.667969 182.359375 41.496094 C 182.925781 41.328125 183.496094 41.183594 184.078125 41.070312 C 184.65625 40.953125 185.238281 40.867188 185.828125 40.808594 C 186.414062 40.75 187.003906 40.722656 187.59375 40.722656 C 188.1875 40.722656 188.777344 40.75 189.363281 40.808594 C 189.949219 40.867188 190.535156 40.953125 191.113281 41.070312 C 191.691406 41.183594 192.265625 41.328125 192.832031 41.496094 C 193.394531 41.667969 193.949219 41.867188 194.496094 42.089844 C 195.042969 42.316406 195.574219 42.570312 196.097656 42.847656 C 196.617188 43.125 197.125 43.425781 197.613281 43.753906 C 198.105469 44.082031 198.578125 44.429688 199.035156 44.804688 C 199.492188 45.179688 199.929688 45.574219 200.347656 45.988281 C 200.765625 46.40625 201.160156 46.84375 201.535156 47.296875 C 201.910156 47.753906 202.261719 48.226562 202.589844 48.714844 C 202.917969 49.203125 203.222656 49.707031 203.5 50.226562 C 203.777344 50.746094 204.03125 51.277344 204.257812 51.824219 C 204.484375 52.367188 204.679688 52.921875 204.851562 53.484375 C 205.023438 54.046875 205.167969 54.617188 205.28125 55.195312 C 205.398438 55.773438 205.484375 56.355469 205.542969 56.941406 C 205.601562 57.527344 205.628906 58.117188 205.628906 58.703125 Z M 205.628906 58.703125 "/>
</g>
<g clip-path="url(#clip3)" clip-rule="nonzero">
<path style=" stroke:none;fill-rule:nonzero;fill:rgb(100%,61.569214%,91.758728%);fill-opacity:1;" d="M 205.644531 315.65625 C 205.644531 316.242188 205.613281 316.832031 205.554688 317.417969 C 205.5 318.003906 205.410156 318.585938 205.296875 319.164062 C 205.179688 319.742188 205.039062 320.3125 204.867188 320.875 C 204.695312 321.4375 204.496094 321.992188 204.269531 322.535156 C 204.042969 323.078125 203.792969 323.613281 203.515625 324.132812 C 203.234375 324.648438 202.933594 325.15625 202.605469 325.644531 C 202.277344 326.132812 201.925781 326.605469 201.550781 327.0625 C 201.175781 327.515625 200.777344 327.953125 200.359375 328.367188 C 199.945312 328.785156 199.507812 329.179688 199.050781 329.554688 C 198.59375 329.925781 198.121094 330.277344 197.628906 330.605469 C 197.136719 330.933594 196.632812 331.234375 196.109375 331.511719 C 195.589844 331.789062 195.054688 332.042969 194.511719 332.265625 C 193.964844 332.492188 193.410156 332.691406 192.84375 332.859375 C 192.28125 333.03125 191.707031 333.175781 191.128906 333.289062 C 190.546875 333.40625 189.964844 333.492188 189.378906 333.550781 C 188.789062 333.605469 188.199219 333.636719 187.609375 333.636719 C 187.019531 333.636719 186.429688 333.605469 185.84375 333.550781 C 185.253906 333.492188 184.671875 333.40625 184.089844 333.289062 C 183.511719 333.175781 182.941406 333.03125 182.375 332.859375 C 181.808594 332.691406 181.253906 332.492188 180.707031 332.265625 C 180.164062 332.042969 179.628906 331.789062 179.109375 331.511719 C 178.589844 331.234375 178.082031 330.933594 177.589844 330.605469 C 177.101562 330.277344 176.625 329.925781 176.167969 329.554688 C 175.714844 329.179688 175.277344 328.785156 174.859375 328.367188 C 174.441406 327.953125 174.042969 327.515625 173.671875 327.0625 C 173.296875 326.605469 172.945312 326.132812 172.617188 325.644531 C 172.289062 325.15625 171.984375 324.648438 171.707031 324.132812 C 171.425781 323.613281 171.175781 323.078125 170.949219 322.535156 C 170.722656 321.992188 170.523438 321.4375 170.351562 320.875 C 170.183594 320.3125 170.039062 319.742188 169.921875 319.164062 C 169.808594 318.585938 169.722656 318.003906 169.664062 317.417969 C 169.605469 316.832031 169.578125 316.242188 169.578125 315.65625 C 169.578125 315.066406 169.605469 314.480469 169.664062 313.894531 C 169.722656 313.308594 169.808594 312.726562 169.921875 312.148438 C 170.039062 311.570312 170.183594 311 170.351562 310.4375 C 170.523438 309.871094 170.722656 309.316406 170.949219 308.773438 C 171.175781 308.230469 171.425781 307.699219 171.707031 307.179688 C 171.984375 306.660156 172.289062 306.15625 172.617188 305.664062 C 172.945312 305.175781 173.296875 304.703125 173.671875 304.25 C 174.042969 303.792969 174.441406 303.355469 174.859375 302.941406 C 175.277344 302.523438 175.714844 302.128906 176.167969 301.757812 C 176.625 301.382812 177.101562 301.03125 177.589844 300.703125 C 178.082031 300.378906 178.589844 300.074219 179.109375 299.796875 C 179.628906 299.519531 180.164062 299.269531 180.707031 299.042969 C 181.253906 298.816406 181.808594 298.621094 182.375 298.449219 C 182.941406 298.277344 183.511719 298.136719 184.089844 298.019531 C 184.671875 297.90625 185.253906 297.820312 185.84375 297.761719 C 186.429688 297.703125 187.019531 297.675781 187.609375 297.675781 C 188.199219 297.675781 188.789062 297.703125 189.378906 297.761719 C 189.964844 297.820312 190.546875 297.90625 191.128906 298.019531 C 191.707031 298.136719 192.28125 298.277344 192.84375 298.449219 C 193.410156 298.621094 193.964844 298.816406 194.511719 299.042969 C 195.054688 299.269531 195.589844 299.519531 196.109375 299.796875 C 196.632812 300.074219 197.136719 300.378906 197.628906 300.703125 C 198.121094 301.03125 198.59375 301.382812 199.050781 301.757812 C 199.507812 302.128906 199.945312 302.523438 200.359375 302.941406 C 200.777344 303.355469 201.175781 303.792969 201.550781 304.25 C 201.925781 304.703125 202.277344 305.175781 202.605469 305.664062 C 202.933594 306.15625 203.234375 306.660156 203.515625 307.179688 C 203.792969 307.699219 204.042969 308.230469 204.269531 308.773438 C 204.496094 309.316406 204.695312 309.871094 204.867188 310.4375 C 205.039062 311 205.179688 311.570312 205.296875 312.148438 C 205.410156 312.726562 205.5 313.308594 205.554688 313.894531 C 205.613281 314.480469 205.644531 315.066406 205.644531 315.65625 Z M 205.644531 315.65625 "/>
</g>
<path style=" stroke:none;fill-rule:nonzero;fill:rgb(32.939148%,19.60907%,32.939148%);fill-opacity:1;" d="M 316.316406 250.488281 C 316.316406 251.074219 316.285156 251.664062 316.230469 252.25 C 316.171875 252.835938 316.085938 253.417969 315.96875 253.996094 C 315.855469 254.570312 315.710938 255.144531 315.539062 255.707031 C 315.367188 256.269531 315.167969 256.824219 314.941406 257.367188 C 314.71875 257.910156 314.464844 258.441406 314.1875 258.960938 C 313.90625 259.480469 313.605469 259.988281 313.277344 260.476562 C 312.949219 260.964844 312.597656 261.4375 312.222656 261.894531 C 311.847656 262.347656 311.453125 262.785156 311.035156 263.199219 C 310.617188 263.617188 310.179688 264.011719 309.722656 264.386719 C 309.265625 264.757812 308.792969 265.109375 308.300781 265.4375 C 307.808594 265.765625 307.304688 266.066406 306.785156 266.34375 C 306.261719 266.621094 305.730469 266.871094 305.183594 267.097656 C 304.636719 267.324219 304.082031 267.523438 303.515625 267.691406 C 302.953125 267.863281 302.378906 268.007812 301.800781 268.121094 C 301.222656 268.238281 300.636719 268.324219 300.050781 268.378906 C 299.460938 268.4375 298.875 268.46875 298.28125 268.46875 C 297.691406 268.46875 297.101562 268.4375 296.515625 268.378906 C 295.925781 268.324219 295.34375 268.238281 294.765625 268.121094 C 294.183594 268.007812 293.613281 267.863281 293.046875 267.691406 C 292.484375 267.523438 291.925781 267.324219 291.382812 267.097656 C 290.835938 266.871094 290.300781 266.621094 289.78125 266.34375 C 289.261719 266.066406 288.753906 265.765625 288.265625 265.4375 C 287.773438 265.109375 287.300781 264.757812 286.84375 264.386719 C 286.386719 264.011719 285.949219 263.617188 285.53125 263.199219 C 285.113281 262.785156 284.71875 262.347656 284.34375 261.894531 C 283.96875 261.4375 283.617188 260.964844 283.289062 260.476562 C 282.960938 259.988281 282.65625 259.480469 282.378906 258.960938 C 282.101562 258.441406 281.847656 257.910156 281.621094 257.367188 C 281.394531 256.824219 281.195312 256.269531 281.027344 255.707031 C 280.855469 255.144531 280.710938 254.570312 280.597656 253.996094 C 280.480469 253.417969 280.394531 252.835938 280.335938 252.25 C 280.277344 251.664062 280.25 251.074219 280.25 250.488281 C 280.25 249.898438 280.277344 249.308594 280.335938 248.722656 C 280.394531 248.136719 280.480469 247.554688 280.59375 246.980469 C 280.710938 246.402344 280.855469 245.832031 281.027344 245.265625 C 281.195312 244.703125 281.394531 244.148438 281.621094 243.605469 C 281.847656 243.0625 282.101562 242.53125 282.378906 242.011719 C 282.65625 241.492188 282.960938 240.988281 283.289062 240.496094 C 283.617188 240.007812 283.96875 239.535156 284.34375 239.078125 C 284.71875 238.625 285.113281 238.1875 285.53125 237.773438 C 285.949219 237.355469 286.386719 236.960938 286.84375 236.585938 C 287.300781 236.214844 287.773438 235.863281 288.265625 235.535156 C 288.753906 235.210938 289.261719 234.90625 289.78125 234.628906 C 290.300781 234.351562 290.835938 234.101562 291.382812 233.875 C 291.925781 233.648438 292.484375 233.453125 293.046875 233.28125 C 293.613281 233.109375 294.183594 232.964844 294.765625 232.851562 C 295.34375 232.738281 295.925781 232.652344 296.515625 232.59375 C 297.101562 232.535156 297.691406 232.507812 298.28125 232.507812 C 298.875 232.507812 299.460938 232.535156 300.050781 232.59375 C 300.636719 232.652344 301.222656 232.738281 301.800781 232.851562 C 302.378906 232.964844 302.953125 233.109375 303.515625 233.28125 C 304.082031 233.453125 304.636719 233.648438 305.183594 233.875 C 305.730469 234.101562 306.261719 234.351562 306.785156 234.628906 C 307.304688 234.90625 307.808594 235.210938 308.300781 235.535156 C 308.792969 235.863281 309.265625 236.214844 309.722656 236.585938 C 310.179688 236.960938 310.617188 237.355469 311.035156 237.773438 C 311.453125 238.1875 311.847656 238.625 312.222656 239.078125 C 312.597656 239.535156 312.949219 240.007812 313.277344 240.496094 C 313.605469 240.988281 313.90625 241.492188 314.1875 242.011719 C 314.464844 242.53125 314.71875 243.0625 314.941406 243.605469 C 315.167969 244.148438 315.367188 244.703125 315.539062 245.265625 C 315.710938 245.832031 315.855469 246.402344 315.96875 246.980469 C 316.085938 247.554688 316.171875 248.136719 316.230469 248.722656 C 316.285156 249.308594 316.316406 249.898438 316.316406 250.488281 Z M 316.316406 250.488281 "/>
<path style=" stroke:none;fill-rule:nonzero;fill:rgb(32.939148%,19.60907%,32.939148%);fill-opacity:1;" d="M 93.683594 122.5 C 93.683594 123.089844 93.652344 123.675781 93.597656 124.261719 C 93.539062 124.847656 93.453125 125.429688 93.335938 126.007812 C 93.222656 126.585938 93.078125 127.15625 92.90625 127.71875 C 92.734375 128.285156 92.535156 128.835938 92.308594 129.382812 C 92.085938 129.925781 91.832031 130.457031 91.554688 130.976562 C 91.273438 131.496094 90.972656 132 90.644531 132.492188 C 90.316406 132.980469 89.964844 133.453125 89.589844 133.90625 C 89.214844 134.363281 88.820312 134.800781 88.402344 135.214844 C 87.984375 135.632812 87.546875 136.027344 87.089844 136.398438 C 86.632812 136.773438 86.160156 137.125 85.667969 137.453125 C 85.175781 137.777344 84.671875 138.082031 84.148438 138.359375 C 83.628906 138.636719 83.097656 138.886719 82.550781 139.113281 C 82.003906 139.339844 81.449219 139.535156 80.882812 139.707031 C 80.320312 139.878906 79.746094 140.019531 79.167969 140.136719 C 78.589844 140.25 78.003906 140.335938 77.417969 140.394531 C 76.828125 140.453125 76.238281 140.480469 75.648438 140.480469 C 75.058594 140.480469 74.46875 140.453125 73.882812 140.394531 C 73.292969 140.335938 72.710938 140.25 72.128906 140.136719 C 71.550781 140.019531 70.980469 139.878906 70.414062 139.707031 C 69.847656 139.535156 69.292969 139.339844 68.746094 139.113281 C 68.203125 138.886719 67.667969 138.636719 67.148438 138.359375 C 66.628906 138.082031 66.121094 137.777344 65.628906 137.453125 C 65.140625 137.125 64.664062 136.773438 64.207031 136.398438 C 63.75 136.027344 63.316406 135.632812 62.898438 135.214844 C 62.480469 134.800781 62.082031 134.363281 61.707031 133.90625 C 61.332031 133.453125 60.984375 132.980469 60.65625 132.492188 C 60.328125 132 60.023438 131.496094 59.746094 130.976562 C 59.464844 130.457031 59.214844 129.925781 58.988281 129.382812 C 58.761719 128.835938 58.5625 128.285156 58.390625 127.71875 C 58.21875 127.15625 58.078125 126.585938 57.960938 126.007812 C 57.847656 125.429688 57.761719 124.847656 57.703125 124.261719 C 57.644531 123.675781 57.613281 123.089844 57.613281 122.5 C 57.613281 121.910156 57.644531 121.324219 57.703125 120.738281 C 57.761719 120.152344 57.847656 119.570312 57.960938 118.992188 C 58.078125 118.414062 58.21875 117.84375 58.390625 117.28125 C 58.5625 116.71875 58.761719 116.164062 58.988281 115.621094 C 59.214844 115.074219 59.464844 114.542969 59.746094 114.023438 C 60.023438 113.503906 60.328125 113 60.65625 112.511719 C 60.984375 112.019531 61.332031 111.550781 61.707031 111.09375 C 62.082031 110.636719 62.480469 110.203125 62.898438 109.785156 C 63.316406 109.371094 63.75 108.976562 64.207031 108.601562 C 64.664062 108.226562 65.140625 107.878906 65.628906 107.550781 C 66.121094 107.222656 66.628906 106.921875 67.148438 106.644531 C 67.667969 106.363281 68.203125 106.113281 68.746094 105.886719 C 69.292969 105.664062 69.847656 105.464844 70.414062 105.292969 C 70.980469 105.121094 71.550781 104.980469 72.128906 104.863281 C 72.710938 104.75 73.292969 104.664062 73.882812 104.605469 C 74.46875 104.546875 75.058594 104.519531 75.648438 104.519531 C 76.238281 104.519531 76.828125 104.546875 77.417969 104.605469 C 78.003906 104.664062 78.589844 104.75 79.167969 104.863281 C 79.746094 104.980469 80.320312 105.121094 80.882812 105.292969 C 81.449219 105.464844 82.003906 105.664062 82.550781 105.886719 C 83.097656 106.113281 83.628906 106.363281 84.148438 106.644531 C 84.671875 106.921875 85.175781 107.222656 85.667969 107.550781 C 86.160156 107.878906 86.632812 108.226562 87.089844 108.601562 C 87.546875 108.976562 87.984375 109.371094 88.402344 109.785156 C 88.820312 110.203125 89.214844 110.636719 89.589844 111.09375 C 89.964844 111.550781 90.316406 112.019531 90.644531 112.511719 C 90.972656 113 91.273438 113.503906 91.554688 114.023438 C 91.832031 114.542969 92.085938 115.074219 92.308594 115.621094 C 92.535156 116.164062 92.734375 116.71875 92.90625 117.28125 C 93.078125 117.84375 93.222656 118.414062 93.335938 118.992188 C 93.453125 119.570312 93.539062 120.152344 93.597656 120.738281 C 93.652344 121.324219 93.683594 121.910156 93.683594 122.5 Z M 93.683594 122.5 "/>
<path style=" stroke:none;fill-rule:nonzero;fill:rgb(0%,60.778809%,46.269226%);fill-opacity:1;" d="M 317.121094 122.304688 C 317.121094 122.894531 317.089844 123.480469 317.035156 124.066406 C 316.976562 124.652344 316.890625 125.234375 316.773438 125.8125 C 316.660156 126.390625 316.515625 126.960938 316.34375 127.523438 C 316.171875 128.085938 315.972656 128.640625 315.746094 129.183594 C 315.519531 129.730469 315.269531 130.261719 314.992188 130.78125 C 314.710938 131.300781 314.410156 131.804688 314.082031 132.292969 C 313.753906 132.785156 313.402344 133.253906 313.027344 133.710938 C 312.652344 134.167969 312.253906 134.601562 311.839844 135.019531 C 311.421875 135.433594 310.984375 135.828125 310.527344 136.203125 C 310.070312 136.578125 309.597656 136.925781 309.105469 137.253906 C 308.613281 137.582031 308.109375 137.882812 307.585938 138.160156 C 307.066406 138.4375 306.535156 138.691406 305.988281 138.917969 C 305.441406 139.140625 304.886719 139.339844 304.320312 139.511719 C 303.757812 139.683594 303.183594 139.824219 302.605469 139.941406 C 302.023438 140.054688 301.441406 140.140625 300.855469 140.199219 C 300.265625 140.257812 299.675781 140.285156 299.085938 140.285156 C 298.496094 140.285156 297.90625 140.257812 297.320312 140.199219 C 296.730469 140.140625 296.148438 140.054688 295.566406 139.941406 C 294.988281 139.824219 294.417969 139.683594 293.851562 139.511719 C 293.285156 139.339844 292.730469 139.140625 292.183594 138.917969 C 291.640625 138.691406 291.105469 138.4375 290.585938 138.160156 C 290.0625 137.882812 289.558594 137.582031 289.066406 137.253906 C 288.574219 136.925781 288.101562 136.578125 287.644531 136.203125 C 287.1875 135.828125 286.753906 135.433594 286.335938 135.019531 C 285.917969 134.601562 285.519531 134.167969 285.144531 133.710938 C 284.769531 133.253906 284.417969 132.785156 284.089844 132.292969 C 283.761719 131.804688 283.460938 131.300781 283.183594 130.78125 C 282.902344 130.261719 282.652344 129.730469 282.425781 129.183594 C 282.199219 128.640625 282 128.085938 281.828125 127.523438 C 281.65625 126.960938 281.515625 126.390625 281.398438 125.8125 C 281.285156 125.234375 281.195312 124.652344 281.140625 124.066406 C 281.082031 123.480469 281.050781 122.894531 281.050781 122.304688 C 281.050781 121.714844 281.082031 121.128906 281.140625 120.542969 C 281.195312 119.957031 281.285156 119.375 281.398438 118.796875 C 281.515625 118.21875 281.65625 117.648438 281.828125 117.085938 C 282 116.519531 282.199219 115.96875 282.425781 115.421875 C 282.652344 114.878906 282.902344 114.347656 283.183594 113.828125 C 283.460938 113.308594 283.761719 112.804688 284.089844 112.3125 C 284.417969 111.824219 284.769531 111.351562 285.144531 110.898438 C 285.519531 110.441406 285.917969 110.003906 286.335938 109.589844 C 286.753906 109.171875 287.1875 108.777344 287.644531 108.40625 C 288.101562 108.03125 288.574219 107.679688 289.066406 107.351562 C 289.558594 107.027344 290.0625 106.722656 290.585938 106.445312 C 291.105469 106.167969 291.640625 105.917969 292.183594 105.691406 C 292.730469 105.464844 293.285156 105.269531 293.851562 105.097656 C 294.417969 104.925781 294.988281 104.78125 295.566406 104.667969 C 296.148438 104.554688 296.730469 104.46875 297.320312 104.410156 C 297.90625 104.351562 298.496094 104.324219 299.085938 104.324219 C 299.675781 104.324219 300.265625 104.351562 300.855469 104.410156 C 301.441406 104.46875 302.023438 104.554688 302.605469 104.667969 C 303.183594 104.78125 303.757812 104.925781 304.320312 105.097656 C 304.886719 105.269531 305.441406 105.464844 305.988281 105.691406 C 306.535156 105.917969 307.066406 106.167969 307.585938 106.445312 C 308.109375 106.722656 308.613281 107.027344 309.105469 107.351562 C 309.597656 107.679688 310.070312 108.03125 310.527344 108.40625 C 310.984375 108.777344 311.421875 109.171875 311.839844 109.589844 C 312.253906 110.003906 312.652344 110.441406 313.027344 110.898438 C 313.402344 111.351562 313.753906 111.824219 314.082031 112.3125 C 314.410156 112.804688 314.710938 113.308594 314.992188 113.828125 C 315.269531 114.347656 315.519531 114.878906 315.746094 115.421875 C 315.972656 115.96875 316.171875 116.519531 316.34375 117.085938 C 316.515625 117.648438 316.660156 118.21875 316.773438 118.796875 C 316.890625 119.375 316.976562 119.957031 317.035156 120.542969 C 317.089844 121.128906 317.121094 121.714844 317.121094 122.304688 Z M 317.121094 122.304688 "/>
<path style=" stroke:none;fill-rule:nonzero;fill:rgb(0%,60.778809%,46.269226%);fill-opacity:1;" d="M 93.996094 251.417969 C 93.996094 252.007812 93.96875 252.59375 93.910156 253.179688 C 93.851562 253.765625 93.765625 254.347656 93.648438 254.925781 C 93.535156 255.503906 93.390625 256.074219 93.21875 256.636719 C 93.046875 257.203125 92.847656 257.753906 92.625 258.300781 C 92.398438 258.84375 92.144531 259.375 91.867188 259.894531 C 91.589844 260.414062 91.285156 260.917969 90.957031 261.40625 C 90.628906 261.898438 90.277344 262.371094 89.902344 262.824219 C 89.527344 263.28125 89.132812 263.714844 88.714844 264.132812 C 88.296875 264.550781 87.859375 264.945312 87.402344 265.316406 C 86.945312 265.691406 86.472656 266.042969 85.980469 266.371094 C 85.488281 266.695312 84.984375 267 84.464844 267.277344 C 83.941406 267.554688 83.410156 267.804688 82.863281 268.03125 C 82.316406 268.257812 81.761719 268.453125 81.195312 268.625 C 80.632812 268.796875 80.058594 268.9375 79.480469 269.054688 C 78.902344 269.167969 78.316406 269.253906 77.730469 269.3125 C 77.140625 269.371094 76.550781 269.398438 75.960938 269.398438 C 75.371094 269.398438 74.78125 269.371094 74.195312 269.3125 C 73.605469 269.253906 73.023438 269.167969 72.445312 269.054688 C 71.863281 268.9375 71.292969 268.796875 70.726562 268.625 C 70.160156 268.453125 69.605469 268.257812 69.0625 268.03125 C 68.515625 267.804688 67.980469 267.554688 67.460938 267.277344 C 66.941406 267 66.433594 266.695312 65.941406 266.367188 C 65.453125 266.042969 64.976562 265.691406 64.519531 265.316406 C 64.066406 264.945312 63.628906 264.550781 63.210938 264.132812 C 62.792969 263.714844 62.394531 263.28125 62.023438 262.824219 C 61.648438 262.371094 61.296875 261.898438 60.96875 261.40625 C 60.640625 260.917969 60.335938 260.414062 60.058594 259.894531 C 59.777344 259.375 59.527344 258.84375 59.300781 258.300781 C 59.074219 257.753906 58.875 257.203125 58.703125 256.636719 C 58.53125 256.074219 58.390625 255.503906 58.273438 254.925781 C 58.160156 254.347656 58.074219 253.765625 58.015625 253.179688 C 57.957031 252.59375 57.929688 252.007812 57.929688 251.417969 C 57.929688 250.828125 57.957031 250.242188 58.015625 249.65625 C 58.074219 249.070312 58.160156 248.488281 58.273438 247.910156 C 58.390625 247.332031 58.53125 246.761719 58.703125 246.199219 C 58.875 245.636719 59.074219 245.082031 59.300781 244.539062 C 59.527344 243.992188 59.777344 243.460938 60.058594 242.941406 C 60.335938 242.421875 60.640625 241.917969 60.96875 241.429688 C 61.296875 240.9375 61.648438 240.464844 62.023438 240.011719 C 62.394531 239.554688 62.792969 239.121094 63.210938 238.703125 C 63.628906 238.289062 64.066406 237.890625 64.519531 237.519531 C 64.976562 237.144531 65.453125 236.792969 65.941406 236.46875 C 66.433594 236.140625 66.941406 235.839844 67.460938 235.558594 C 67.980469 235.28125 68.515625 235.03125 69.0625 234.804688 C 69.605469 234.582031 70.160156 234.382812 70.726562 234.210938 C 71.292969 234.039062 71.863281 233.898438 72.445312 233.78125 C 73.023438 233.667969 73.605469 233.582031 74.195312 233.523438 C 74.78125 233.464844 75.371094 233.4375 75.960938 233.4375 C 76.550781 233.4375 77.140625 233.464844 77.730469 233.523438 C 78.316406 233.582031 78.902344 233.667969 79.480469 233.78125 C 80.058594 233.898438 80.632812 234.039062 81.195312 234.210938 C 81.761719 234.382812 82.316406 234.582031 82.863281 234.804688 C 83.410156 235.03125 83.941406 235.28125 84.464844 235.558594 C 84.984375 235.839844 85.488281 236.140625 85.980469 236.46875 C 86.472656 236.792969 86.945312 237.144531 87.402344 237.519531 C 87.859375 237.890625 88.296875 238.289062 88.714844 238.703125 C 89.132812 239.121094 89.527344 239.554688 89.902344 240.011719 C 90.277344 240.464844 90.628906 240.9375 90.957031 241.429688 C 91.285156 241.917969 91.589844 242.421875 91.867188 242.941406 C 92.144531 243.460938 92.398438 243.992188 92.625 244.539062 C 92.847656 245.082031 93.046875 245.636719 93.21875 246.199219 C 93.390625 246.761719 93.535156 247.332031 93.648438 247.910156 C 93.765625 248.488281 93.851562 249.070312 93.910156 249.65625 C 93.96875 250.242188 93.996094 250.828125 93.996094 251.417969 Z M 93.996094 251.417969 "/>
<path style=" stroke:none;fill-rule:nonzero;fill:rgb(19.999695%,94.898987%,69.799805%);fill-opacity:1;" d="M 233.917969 186.84375 C 233.917969 188.355469 233.84375 189.863281 233.695312 191.367188 C 233.546875 192.875 233.324219 194.367188 233.03125 195.851562 C 232.734375 197.335938 232.363281 198.800781 231.925781 200.25 C 231.484375 201.695312 230.972656 203.121094 230.394531 204.515625 C 229.8125 205.914062 229.164062 207.28125 228.449219 208.613281 C 227.734375 209.949219 226.957031 211.246094 226.113281 212.503906 C 225.269531 213.761719 224.367188 214.972656 223.40625 216.144531 C 222.441406 217.3125 221.425781 218.433594 220.351562 219.5 C 219.277344 220.570312 218.15625 221.585938 216.984375 222.546875 C 215.808594 223.503906 214.59375 224.40625 213.332031 225.246094 C 212.070312 226.085938 210.769531 226.863281 209.433594 227.578125 C 208.09375 228.289062 206.722656 228.933594 205.324219 229.515625 C 203.921875 230.09375 202.496094 230.601562 201.042969 231.042969 C 199.589844 231.480469 198.121094 231.847656 196.632812 232.144531 C 195.144531 232.4375 193.644531 232.660156 192.136719 232.808594 C 190.625 232.957031 189.113281 233.03125 187.59375 233.03125 C 186.078125 233.03125 184.566406 232.957031 183.054688 232.808594 C 181.546875 232.660156 180.046875 232.4375 178.558594 232.144531 C 177.070312 231.847656 175.601562 231.480469 174.148438 231.042969 C 172.695312 230.601562 171.269531 230.09375 169.867188 229.515625 C 168.464844 228.933594 167.097656 228.289062 165.757812 227.578125 C 164.421875 226.863281 163.121094 226.085938 161.859375 225.246094 C 160.597656 224.40625 159.378906 223.503906 158.207031 222.546875 C 157.035156 221.585938 155.914062 220.570312 154.839844 219.5 C 153.765625 218.433594 152.75 217.3125 151.785156 216.144531 C 150.824219 214.972656 149.921875 213.761719 149.078125 212.503906 C 148.234375 211.246094 147.457031 209.949219 146.742188 208.613281 C 146.027344 207.28125 145.378906 205.914062 144.796875 204.515625 C 144.21875 203.121094 143.707031 201.695312 143.265625 200.25 C 142.824219 198.800781 142.457031 197.335938 142.160156 195.851562 C 141.867188 194.367188 141.644531 192.875 141.496094 191.367188 C 141.347656 189.863281 141.273438 188.355469 141.273438 186.84375 C 141.273438 185.328125 141.347656 183.820312 141.496094 182.316406 C 141.644531 180.808594 141.867188 179.316406 142.160156 177.832031 C 142.457031 176.347656 142.824219 174.882812 143.265625 173.433594 C 143.707031 171.988281 144.21875 170.5625 144.796875 169.167969 C 145.378906 167.769531 146.027344 166.402344 146.742188 165.070312 C 147.457031 163.734375 148.234375 162.4375 149.078125 161.179688 C 149.921875 159.921875 150.824219 158.710938 151.785156 157.539062 C 152.75 156.371094 153.765625 155.25 154.839844 154.183594 C 155.914062 153.113281 157.035156 152.097656 158.207031 151.136719 C 159.378906 150.179688 160.597656 149.277344 161.859375 148.4375 C 163.121094 147.597656 164.421875 146.820312 165.757812 146.105469 C 167.097656 145.394531 168.464844 144.75 169.867188 144.167969 C 171.269531 143.589844 172.695312 143.082031 174.148438 142.640625 C 175.601562 142.203125 177.070312 141.835938 178.558594 141.542969 C 180.046875 141.246094 181.546875 141.023438 183.054688 140.875 C 184.566406 140.726562 186.078125 140.652344 187.59375 140.652344 C 189.113281 140.652344 190.625 140.726562 192.136719 140.875 C 193.644531 141.023438 195.144531 141.246094 196.632812 141.542969 C 198.121094 141.835938 199.589844 142.203125 201.042969 142.640625 C 202.496094 143.082031 203.921875 143.589844 205.324219 144.167969 C 206.722656 144.75 208.09375 145.394531 209.433594 146.105469 C 210.769531 146.820312 212.070312 147.597656 213.332031 148.4375 C 214.59375 149.277344 215.808594 150.179688 216.984375 151.136719 C 218.15625 152.097656 219.277344 153.113281 220.351562 154.183594 C 221.425781 155.25 222.441406 156.371094 223.40625 157.539062 C 224.367188 158.710938 225.269531 159.921875 226.113281 161.179688 C 226.957031 162.4375 227.734375 163.734375 228.449219 165.070312 C 229.164062 166.402344 229.8125 167.769531 230.394531 169.167969 C 230.972656 170.5625 231.484375 171.988281 231.925781 173.433594 C 232.363281 174.882812 232.734375 176.347656 233.03125 177.832031 C 233.324219 179.316406 233.546875 180.808594 233.695312 182.316406 C 233.84375 183.820312 233.917969 185.328125 233.917969 186.84375 Z M 233.917969 186.84375 "/>
<path style=" stroke:none;fill-rule:nonzero;fill:rgb(1.959229%,31.759644%,22.349548%);fill-opacity:1;" d="M 188.257812 140.714844 L 182.292969 147.898438 L 171.535156 152.625 L 168.109375 159.703125 C 167.128906 161.726562 167.6875 164.160156 169.453125 165.558594 C 171.363281 167.070312 172.132812 169.609375 171.382812 171.925781 L 170.574219 174.410156 C 168.457031 180.945312 171.84375 187.988281 178.28125 190.433594 C 182.257812 194.398438 184.535156 199.746094 184.636719 205.351562 L 184.660156 206.609375 L 189.582031 216.242188 L 199.730469 206.929688 C 203.546875 203.425781 206.046875 198.734375 206.816406 193.621094 L 207.488281 189.179688 C 207.910156 186.398438 209.917969 184.121094 212.628906 183.347656 C 214.566406 182.796875 216.644531 183.472656 217.878906 185.058594 L 231.171875 202.097656 C 232.855469 197.3125 233.777344 192.171875 233.777344 186.8125 C 233.777344 161.585938 213.460938 141.097656 188.257812 140.714844 Z M 188.257812 140.714844 "/>
<path style=" stroke:none;fill-rule:nonzero;fill:rgb(1.959229%,31.759644%,22.349548%);fill-opacity:1;" d="M 165.324219 210.734375 C 164.609375 207.886719 164.417969 204.933594 164.753906 202.015625 L 165.339844 196.976562 L 160.78125 194.613281 L 141.3125 185.871094 C 141.015625 200.726562 147.769531 214.015625 158.460938 222.652344 L 158.957031 222.605469 L 163.203125 218.371094 C 165.207031 216.375 166.011719 213.476562 165.324219 210.734375 Z M 165.324219 210.734375 "/>
<path style=" stroke:none;fill-rule:nonzero;fill:rgb(1.959229%,31.759644%,22.349548%);fill-opacity:1;" d="M 159.023438 162.027344 C 159.902344 158.621094 159.136719 155.003906 156.953125 152.238281 C 148.984375 159.253906 143.460938 168.960938 141.816406 179.933594 L 150.574219 176.980469 L 152.203125 175.085938 C 155.445312 171.308594 157.78125 166.84375 159.023438 162.027344 Z M 159.023438 162.027344 "/>
<path style=" stroke:none;fill-rule:nonzero;fill:rgb(97.24884%,69.799805%,19.999695%);fill-opacity:1;" d="M 165.859375 171.109375 C 165.859375 183.167969 175.671875 192.976562 187.738281 192.976562 C 199.804688 192.976562 209.617188 183.167969 209.617188 171.109375 C 209.617188 153.378906 224.046875 138.957031 241.789062 138.957031 C 248.121094 138.957031 254.027344 140.800781 259.015625 143.976562 C 248.445312 114.753906 220.414062 93.816406 187.589844 93.816406 C 154.664062 93.816406 126.570312 114.878906 116.066406 144.226562 C 121.132812 140.898438 127.1875 138.957031 133.691406 138.957031 C 151.429688 138.957031 165.859375 153.378906 165.859375 171.109375 Z M 165.859375 171.109375 "/>
<path style=" stroke:none;fill-rule:nonzero;fill:rgb(84.709167%,52.938843%,11.369324%);fill-opacity:1;" d="M 187.589844 98.964844 C 217.832031 98.964844 244 116.730469 256.203125 142.378906 C 257.167969 142.863281 258.109375 143.398438 259.019531 143.976562 C 248.449219 114.753906 220.417969 93.816406 187.59375 93.816406 C 154.667969 93.816406 126.574219 114.878906 116.070312 144.226562 C 116.976562 143.632812 117.914062 143.085938 118.878906 142.578125 C 131.03125 116.832031 157.261719 98.964844 187.589844 98.964844 Z M 187.589844 98.964844 "/>
<path style=" stroke:none;fill-rule:nonzero;fill:rgb(70.979309%,88.238525%,97.648621%);fill-opacity:1;" d="M 263.5 168.449219 C 262.179688 157.644531 252.949219 149.242188 241.789062 149.242188 C 229.722656 149.242188 219.910156 159.050781 219.910156 171.109375 C 219.910156 188.839844 205.476562 203.265625 187.738281 203.265625 C 170 203.265625 155.570312 188.839844 155.570312 171.109375 C 155.570312 159.050781 145.753906 149.242188 133.691406 149.242188 C 121.625 149.242188 111.8125 159.050781 111.8125 171.109375 C 111.8125 171.519531 111.757812 171.914062 111.667969 172.296875 L 111.960938 259.785156 C 111.960938 271.859375 121.773438 281.671875 133.839844 281.671875 C 145.53125 281.671875 155.109375 272.457031 155.6875 260.914062 C 155.613281 260.558594 155.5625 260.183594 155.5625 259.800781 C 155.5625 242.070312 169.996094 227.648438 187.734375 227.648438 C 205.015625 227.648438 219.15625 241.34375 219.871094 258.449219 C 219.984375 258.882812 220.054688 259.335938 220.054688 259.800781 C 220.054688 271.859375 229.867188 281.671875 241.933594 281.671875 C 254 281.671875 263.8125 271.859375 263.8125 259.800781 L 263.507812 169.726562 C 263.511719 169.296875 263.503906 168.875 263.5 168.449219 Z M 263.5 168.449219 "/>
<path style=" stroke:none;fill-rule:nonzero;fill:rgb(47.839355%,71.759033%,78.42865%);fill-opacity:1;" d="M 111.8125 176.253906 C 111.8125 164.195312 121.625 154.386719 133.691406 154.386719 C 145.753906 154.386719 155.570312 164.195312 155.570312 176.253906 C 155.570312 193.984375 170 208.40625 187.738281 208.40625 C 205.476562 208.40625 219.910156 193.984375 219.910156 176.253906 C 219.910156 164.195312 229.722656 154.386719 241.789062 154.386719 C 252.949219 154.386719 262.179688 162.785156 263.5 173.589844 C 263.507812 174.015625 263.515625 174.441406 263.515625 174.871094 L 263.800781 260.402344 C 263.804688 260.203125 263.816406 260.003906 263.816406 259.800781 L 263.511719 169.726562 C 263.511719 169.296875 263.503906 168.875 263.496094 168.449219 C 262.175781 157.644531 252.945312 149.242188 241.78125 149.242188 C 229.71875 149.242188 219.902344 159.050781 219.902344 171.109375 C 219.902344 188.839844 205.472656 203.265625 187.734375 203.265625 C 169.996094 203.265625 155.5625 188.839844 155.5625 171.109375 C 155.5625 159.050781 145.75 149.242188 133.683594 149.242188 C 121.621094 149.242188 111.804688 159.050781 111.804688 171.109375 C 111.804688 171.519531 111.753906 171.914062 111.664062 172.296875 L 111.683594 177.34375 C 111.761719 176.992188 111.8125 176.625 111.8125 176.253906 Z M 111.8125 176.253906 "/>
<g clip-path="url(#clip4)" clip-rule="nonzero">
<path style=" stroke:none;fill-rule:nonzero;fill:rgb(15.289307%,18.03894%,39.219666%);fill-opacity:1;" d="M 273.957031 171.109375 C 273.957031 169.972656 273.898438 168.851562 273.78125 167.75 C 272.734375 121.132812 234.46875 83.535156 187.589844 83.535156 C 140.046875 83.535156 101.371094 122.191406 101.371094 169.726562 L 101.675781 259.800781 C 101.675781 277.53125 116.105469 291.957031 133.84375 291.957031 C 151.582031 291.957031 166.015625 277.53125 166.015625 259.800781 C 166.015625 259.421875 165.972656 259.050781 165.890625 258.691406 C 166.46875 247.144531 176.046875 237.933594 187.738281 237.933594 C 199.804688 237.933594 209.617188 247.742188 209.617188 259.800781 C 209.617188 260.269531 209.6875 260.726562 209.800781 261.152344 C 210.515625 278.257812 224.65625 291.957031 241.9375 291.957031 C 259.675781 291.957031 274.109375 277.53125 274.109375 259.785156 L 273.816406 172.300781 C 273.902344 171.914062 273.957031 171.519531 273.957031 171.109375 Z M 187.589844 93.820312 C 220.417969 93.820312 248.445312 114.757812 259.015625 143.980469 C 254.027344 140.804688 248.121094 138.960938 241.789062 138.960938 C 224.046875 138.960938 209.617188 153.386719 209.617188 171.113281 C 209.617188 183.171875 199.804688 192.984375 187.738281 192.984375 C 175.671875 192.984375 165.859375 183.171875 165.859375 171.113281 C 165.859375 153.386719 151.429688 138.960938 133.691406 138.960938 C 127.1875 138.960938 121.132812 140.90625 116.066406 144.230469 C 126.5625 114.882812 154.65625 93.820312 187.589844 93.820312 Z M 241.9375 281.671875 C 229.871094 281.671875 220.058594 271.859375 220.058594 259.800781 C 220.058594 259.335938 219.988281 258.878906 219.875 258.449219 C 219.160156 241.347656 205.023438 227.648438 187.738281 227.648438 C 170 227.648438 155.570312 242.070312 155.570312 259.800781 C 155.570312 260.183594 155.613281 260.554688 155.691406 260.914062 C 155.113281 272.457031 145.535156 281.671875 133.84375 281.671875 C 121.78125 281.671875 111.964844 271.859375 111.964844 259.785156 L 111.671875 172.296875 C 111.761719 171.914062 111.816406 171.519531 111.816406 171.109375 C 111.816406 159.050781 121.628906 149.242188 133.695312 149.242188 C 145.757812 149.242188 155.574219 159.050781 155.574219 171.109375 C 155.574219 188.839844 170.003906 203.265625 187.742188 203.265625 C 205.480469 203.265625 219.914062 188.839844 219.914062 171.109375 C 219.914062 159.050781 229.726562 149.242188 241.792969 149.242188 C 252.953125 149.242188 262.183594 157.644531 263.503906 168.449219 C 263.511719 168.875 263.519531 169.296875 263.519531 169.726562 L 263.824219 259.800781 C 263.816406 271.859375 254.003906 281.671875 241.9375 281.671875 Z M 241.9375 281.671875 "/>
</g>
</g>
</svg>
